/* XPM */
static char *c73c02808adc4f3092a70b0fe2976bbbeLjkqd7zIQnJOFS0[] = {
/* columns rows colors chars-per-pixel */
"64 64 21 1 ",
"  c black",
". c #181818",
"X c gray11",
"o c #28200C",
"O c #2C2C2C",
"+ c #343434",
"@ c #400000",
"# c #7C0000",
"$ c #404000",
"% c #585400",
"& c #706C00",
"* c gray25",
"= c #484848",
"- c #980000",
"; c #A80000",
": c #848400",
"> c #9C9C00",
", c #B4AC00",
"< c #FCB400",
"1 c #CCC400",
"2 c #E4D800",
/* pixels */
"                                                                ",
"OOOOOOOOOOOO+O+OOOOOOOO+OOOOOOOOOO+OOOOOOOOOOOOOO+O+OOOOOOOO+OOO",
"O+OOOOOOOOOOO+O+OOOOOOOO+OOOOOOOOOO+OOOOO+OOOOOOOO+O+OOOOOOOO+OO",
"OOOOOOO+OOO+OO+OOOOO+OOOO+OOOOO+OOOO+OOO+O+O+OOO+OO+OOOOO+OOOOOO",
"OOOO+O+O+O+OOOOOOOOO++OO+OOOOOO++OO+OOOOOOO+O+O+OOOOOOOOO++OOO+O",
"XOO+OOXXXXXXXXXXXXXXXXXXXXXXXXXXXXXXXXXXXXXXXXXXXXXXXXXXXXOOO++X",
"=OOO+OX..................................................=+OOOOX",
"=+OOO+X..................................................=OOOOOX",
"=OOO+OX..................................................=OOOOOX",
"=OOOO+X..................................................=OOOOOX",
"=OOOOOX..................................................=+O+OOX",
"=OOOO+X......................o$%%$.......................=O+O+OX",
"=OOO+OX.....................o>1o11$......................=OO+OOX",
"=++OOOX...........>1111,....$,111<%.....,1111,...........=++OOOX",
"=OO+OOX..........:<<<<<<%...%.,111%....:<<<<<<%..........=OOO+OX",
"=O+O+OX.........:<<>$$o<<%....o1<<$...:<<o$o><<%.........=OOOO+X",
"=+O+OOX........:<<>$&1<o<<%...o1<<...:<<o<1&o><<%........=OOOOOX",
"=OOOOOX.......$<<o$&$<$<o<<%.o$<1<o.:<<o<o<o&$o<<$.......=OOOO+X",
"=OOOOOX........oo:o1<$1$<o<<$:1o:o<$<<o<o1o1>o:oo........=OOO+OX",
"=OOOOOX........o<,o<$1$1$<o$o1o1o11o$o<o1o1$:o1<o........=+OOO+X",
"=+OOOOX........,<,o$o>$1$1<o<o<o1$o<o<1$1$>o$o1<,........=OOO+OX",
"=OOO++X........1<,o1:o:$1$o<o<1o<><o<o$1o:o:,o1<,........=OO+OOX",
"=+OOO+X........1<,o1,oo:$,>o<$o<1:o<o::o:oo1,o1<,........=OOO+OX",
"=OOOOOX........1<,o1,o&oo$o<$1<$<o1$<o$o$&o1,o1<,........=OOOOOX",
"=++OOOX........1<,o1,o1:o&$o$:1<o1:$oo&o:,o1,o1<,........=+OOOOX",
"=OO+O+X........1<,o1,o1,o,..o$2o&oo$..1o1,o1,o1<,........=OOOOOX",
"=OOO+OX........1<,o1,o1,o,o$11$<>o1&$o1o1,o1,o1<,........=OOO+OX",
"=OOOOOX........1<,o1,o1,o,o$11$2>o1>$o1o1,o1,o1<,........=OO+O+X",
"=+OOOOX........1<,o1,o1,o,o$11$1>o1>$o1o1,o1,o1<,........=O+OOOX",
"=OOOOOX........1<o&1,o1,o,o$&o,$>:o>$o1o1,o1,&o<,........=OOOOOX",
"=OOOOOX........oo,o1,o1,o,o$o11$>o1o$o1o1,o1,o1oo........=+OOO+X",
"=OOOOOX........1<,o1,o1,o,.$21>o$11&$.1o1,o1,o1<,........=OOO++X",
"=OOO++X........1<,o1,o1,o,.oo1$1>o1>$.1o1,o1,o1<,........=OOOOOX",
"=+OOO+X........1<,o1,o1,o,..o$11>&o>$.1o1,o1,o1<,........=OOOOOX",
"=OOOOOX........1<,o1,o1,o,..$121>11o$.1o1,o1,o1<,........=OOOOOX",
"=O+OOOX........1<,o1,o1,o,..$1o1>o1>$.1o1,o1,o1<,........=+OOOOX",
"=OO+O+X........1<,o1,o1,o,..$1$1>o1oo.1o1,o1,o1<,........=OOOOOX",
"=OOO+OX........1<,o1,o1,o,..$$2$oo1o..1o1,o1,o1<,........=OOO+OX",
"=OOOOOX........1<,o1,o1,o,..$2,$oo,$..1o1,o1,o1<,........=OO+O+X",
"=+OOOOX........1<,o1,o1,o:.$2,$-#$2,$.:o1,o1,o1<,........=++OOOX",
"=OOOOOX........1<,o1,o1,o..$,$-#@.$2,$.o1,o1,o1<,........=OOOOOX",
"OOOO+OX........1<,o1,o1:...$$-#@.@#$$@..:,o1,o1<,........=+OOO+O",
"OOO+OOX........1<,o1,o:...@.@;-#@;-#-#@..:o1,o1<,........=OOO++O",
"OOOO+OX........1<,o1:....@#@.@;-;-#@;-#@...:,o1<,........=+OOOOO",
"O+OOO+X........1<,o:....@;-#@.@;-#@.@;-#@...:o1<,........=OOOOOO",
"OOOO+OX........1<:.......@;-#@;-;-#@.@;@......:<,........=OOOOOO",
" OOOO+X........1:.........@;-;-#@;-#@.@........:,........=OOOOO ",
"*OOOOOX........:...........@;-#@.@;-#@..........:........=+O+OO ",
"*OOOO+X.....................@;@.@;-#@....................=O+O+O ",
"*OOO+OX......................@.@;-#@.....................=OO+OO ",
"*++OOOX.......................@;-#@......................=++OOO ",
"*OO+OOX........................@-@.......................=OOO+O ",
"*O+O+OX.........................@........................=OOOO+ ",
"*+O+OOX..................................................=OOOOO ",
"*OOOOOX..................................................=OOOO+ ",
"*OOOOOX..................................................=OOO+O ",
"*OOOOOX..................................................=+OOO+ ",
"*+OOOOX*==================================================OOO+O ",
"*OOO++OOO+O+O+OOOOOOOOO++OO+OOOOOO++OO+OOOOOOO+O+O+OOOOOOOOO+OO ",
"*+OOO++O+O+OOO+OO+OOOOO+OOOO+OOOOO+OOOO+OOO+O+O+OOO+OO+OOOOOO+O ",
"*OOOOOO+OOOOOOOO+O+OOOOOOOO+OOOOOOOOOO+OOOOO+OOOOOOOO+O+OOOOOOO ",
"*OOOOOOOO+OOOOO+OO+OOO+O+O+OOO+OOOO+OOOOO+OOOO+OOOOO+OO+OO+OOOO ",
"X                                                               ",
"                                                                "
};
