/* XPM */
static char *_17372ffe97e4bdb958c7d9254de1409XshHEQMKaAs0Dbdm[] = {
/* columns rows colors chars-per-pixel */
"64 64 53 1 ",
"  c #181818",
". c gray11",
"X c #28200C",
"o c #302410",
"O c #382C14",
"+ c #202020",
"@ c #212921",
"# c #2E2B22",
"$ c #282828",
"% c #2C2C2C",
"& c #293121",
"* c #313929",
"= c gray19",
"- c #343434",
"; c gray22",
": c #400000",
"> c #4C0000",
", c #580000",
"< c #640000",
"1 c #700000",
"2 c #7C0000",
"3 c #403018",
"4 c #044000",
"5 c #044C00",
"6 c #045800",
"7 c #046400",
"8 c #047000",
"9 c #047C00",
"0 c gray25",
"q c #484848",
"w c #4C4C4C",
"e c gray33",
"r c gray36",
"t c #646464",
"y c gray44",
"u c #7C7C7C",
"i c #880000",
"p c #980000",
"a c #048800",
"s c #049800",
"d c #04A400",
"f c #00A800",
"g c #04B000",
"h c #04BC00",
"j c #04C800",
"k c gray55",
"l c #989898",
"z c gray66",
"x c #B4B4B4",
"c c #C0C0C0",
"v c #D0D0D0",
"b c gainsboro",
"n c #ECECEC",
/* pixels */
"0000000000000;%%%0000000000000000000000000000;%%%000000000000000",
"ccccccccccccxu=%0xccxxccccccccccccccccccccccxu=%0xcccccccccccccc",
"zxzzlzzxxzzlky%%0cxlkklzzzzxzzzzzxxzzzzllxcxzy%%0cxzxxxxxxxxxxlz",
"lzzzzzzzllzlkt%%0cllllkzzlzzzlzzzxxzzzlzxcxzzy%%0czzxzzzxzzzlzlz",
"zzllzzzlllllzy%%0czzzxzzllzcxxzzzzzzzlllzzzzzy%%0cxzxxxzxzzzllzz",
"zllzzlzzzllzzy%%0cxxzxzzzzzzzxxzzxzzzzlkzxxzzy%%0cczzzzzzlzlzlcx",
"zzlzzzzllllllt%%0xzzzllklzxzzzllllklzzlkzzlzzt$%0xzzlllzzzzzzlll",
"zllzzllkyyyyyq$%;kkyyyytyuuuuytttyyyyytyyttyyq+$;uyukkzzzzkkzkzl",
"yyyyyyte0;---%+@$0;------;;;---==-----=--==--% +$0;0qettyyttytyy",
"$$$$$$+.                                                $%$$$$$$",
"$;000;%+ 4444445555455544455554444444455555445544444544 ;000;=$$",
"0xcccxue 4555568aa969aa6568sda65668656aaaa8678876557985 cbccxu=%",
"0czzzlyq 578769sssa68ssa68sggs76sdfs66asss868888756fhg5 bnvczy%%",
"0cllzlt0 58876asssa68ssa66sggd66dghga68sss868888857hjh6 bncxly%%",
"0czzzltq 588669aaa957aa956assa67sgdds66aaa757777768hjh6 bbczly%%",
"0czlllyq 577555&&&&##&&&&55&&&##&&&&&&&&&&&####&&58hjg5 vvllly%%",
"0cllzlyw 455665#,>X<11<o&66#>11<>X.:>X   .><11,.@56fga5 bbxzly%%",
"0czzxzuw 4569a9&,X>1222<*dd&,1ii1> XX>X X>XX>>X.&556664 bvllly%%",
"0xzzzly0 458ssa&,X>1222<&dg&>:ii1XX1<<,X,1<>X X,#776554 vczlly%%",
";uyyytq% 469ssa&. X<122<&dg*,,<2<><211,X,111,X,1#787554 kkyyyr$%",
"%%$$$$+  456asa&.X>:,11>&gg*2>X<XX1211,X,121,X,<#787554 =;%$$$+%",
"00000;$. 4656a9&>,<>X  X&s9&,X    >1<>X >,11,X,1#765554 qw000000",
"cccccxuw 596565#,121,X :#66&X>X X>XX X:XXX>,X X,#555554 cbcccccc",
"lllzzly0 5aa655#<2221,X,#68&,<,X,1<>X>,,>.X>>:..&567875 vbvxxxzl",
"llzllzyq 5aa669&,1211,><#7s&<1,X,111#&&#&&&##&&&&578885 vbczzxlz",
"zlzzzxyw 5aa669&X<11<,X,#6s&<1,X,12<*sa6797579875588885 vbzzlllz",
"xxlzxzyq 5aa669&.X>XXX :&89&,>X >,1<*sa6897579975588875 vvxxzllx",
"zxlzzzyq 5aa669&:  X>>  $&&$.X:XXX>,#&&&&&&#&&&&&577654 vvzzlzzx",
"zxlllly0 466555&.X>,,,X X<o X><<> X,,>X :X>>X.X>#555554 vvzlzxzx",
"zlkklkt0 455686&.>2222>X12<X,<11,X<221>X,<22<X,1#765575 vvlzzzzz",
"yyttytq% 456fhd&:X2ii,X,22<X,111,><ii2<X<iii2><2#885575 kkyyyyyy",
"$$$$$$+  456hjg&:X1i1X 122<X,<<<,X<iii1,1ipi1X<2#985575 =;%$$$$$",
"$;000;$. 456gjg&  >1X X>:,X X>X:X ,111>X<2ii<X,<&885575 qw00;=$$",
"0xcccxuw 4557gd&. X>,,,,,> X>,XX  XX,X  XX>,X X.&765554 cbccxu=%",
"0czzzlt0 456667&,> X2iii2,X<111,X><<1,X>,>XX  :X&556664 vvxxzy%%",
"0czzlly0 46aa65#<,X,2iii2>X<222<><221,X,11<>X,<,#58aaa5 bbcxzy%%",
"0czxzkt0 5ass85&**&######&&O122<X<223&&#12<X,121#7assa5 bbzxxy%%",
"0czxzltq 5ass86sggs678757a9&<11,X<21#85#11,X,221#8sssa5 bbxxzy%%",
"0cxzzltw 5asa86dggd678857a9&>>XXX>1<&95#<1,X,121#7assa5 bbxzly%%",
"0cxzzlyw 588875&*&&#&&&&&&&$ XX>>X .&75#<,>XX>,,#58aa95 vvzlly%%",
"0xzzlkyw 456665#,o<,X::..X>X ,111> .&55#>:,>X X>#666664 xczzzy%%",
";uyyytq= 458a97&,>221X X><<,X<222,X,#55#,<22<X,1*sa6554 kkyyyr$%",
"%%$$$$+  469ssa&::2ii<X,111,X<222<X,#76#<iii2><2*dda675 =;%$$$+%",
"00000;$. 46assa&X>2ii1X,111,X,122<X,&aa&1ipi1X<2*ggs675 qw000000",
"cccccxke 46assa&.>222, X<<>X X,11> X&aa&<2ii<X,<*dfa675 cbcccccc",
"zxccxluw 469aa9& X>,>XX:X X>>X>X>XX>&aa&XX>,X X.&sa6554 bbzzzxxx",
"llzllkt0 456665#>>XX X<X X><11,XX>11&99&>>XX  :X&666664 bbzllzll",
"zzzlzut0 466655#111>X<2<X><<111,X,21#55#<1<>X>,>#569a95 bbxllzzl",
"xlzzzky0 5aaa65&&###&&&&&###&*&#&&&&&55&&&##&&&&&58ssa5 bbzlzzzz",
"xzcxllyw 5asa66aa95599a99556ada67aaaa66aaa9559aa768ssa5 bbxzzzlz",
"zxxklzue 5as966asa66aasa857fghs68sssa66assa66ass868aa85 bbxzzllz",
"zzlklzye 598656asa669aa966ahhhs69sssa656aa967sss8676664 vbzzzlzz",
"yyytyteq 4655556aa65666656sgfga68aa9655566656aaa6555574 kkyyyyyy",
"$$$$$$+. 4444444554444444455555455554444444445554444444 =-$$$$$$",
"$;000;;;                                                qq00;=$$",
"0xcccccvvvvbvbbbbbbbbvvvbbbbvz0$0cbbbbbbbbbbbbbbbbbbbbbbbbccxu=%",
"0czzzxxxxxcbcvbbbbbbbvxvvbvvvl;%qbbvbbbbvbbbbvvbvvbbbvvbbvxxzy%%",
"0czzlzkzzzlzzxxxxzxzzlllllllly%%0cxxxxzzzxxxzzxxxxxxxzxcxxzzzy%%",
"0czllzklzzkzzxxzlzlzluukklklly%%0czzzzzlzzzlzzxxxzlzzlzxzzzzzy%%",
"0czlzzzxxllzzxxzzllllkklklkkly%%0czzzlllzllzzzzzxzzzlzzxzzllzy%%",
"0czlzzzzllzzzxzllkkkllklzzllly%%0cxzllllllllzzlzzzllzzxxzzzzzy%%",
"0xlzczzlllzlkzkyukklzlllllllly%%0xzzkkkkllllllllllllzzzzzlklly%%",
";uyyyyyyyyyytytttttyyyyyyyyyyr$%;uyyttttyyyyyyyyyyyyyyyyyytyyr$%",
"%$$$$$$$$$$$$$$$$$$$$$$$$$$$$@+$%$$$$$$$$$$$$$$$$$$$$$$$$$$$$@+$"
};
